<svg xmlns="http://www.w3.org/2000/svg" width="60" height="60" fill="none"><path fill="#FFCF06" d="M48.7 26.55H21.188c-5.775-.175-5.788-8.563 0-8.75H48.7c5.775.175 5.788 8.563 0 8.75ZM23.1 44.112c-4.6-3.525-15.337-1.75-15.35 4.238 0 3.4 3.925 6.063 8.925 6.063 5 0 8.925-2.663 8.925-6.05V27.8h-2.5v16.312Zm21.2 0c-4.6-3.525-15.325-1.75-15.337 4.238 0 3.4 3.912 6.063 8.912 6.063 5 0 8.925-2.663 8.925-6.05V27.8h-2.5v16.312Zm-36.275-7.55-.662-3.8-2.6-2.85 3.8-.662 2.85-2.613.662 3.813 2.6 2.838-3.8.662-2.85 2.612Zm1.663-4.974.025.05.037-.026-.025-.037h-.037v.012Zm44.725 21.2.725-2.625-2.6.812-2.625-.725.812 2.6L50 55.475l2.6-.813 2.625.726-.812-2.6ZM37.888 13.011l1.5-2.737 2.737-1.5-2.737-1.5-1.5-2.738-1.5 2.738-2.738 1.5 2.738 1.5 1.5 2.737Z"/></svg>