<svg xmlns="http://www.w3.org/2000/svg" width="55" height="48" fill="none"><path fill="#F5BA00" d="M27.356 41.113a.575.575 0 1 0 0-1.151v1.15ZM.886 39.962a.576.576 0 0 0 0 1.15v-1.15Zm26.47-33.089a.575.575 0 0 0 0 1.151v-1.15Zm26.471 1.151a.575.575 0 1 0 0-1.15v1.15Zm-26.47 31.938H.884v1.15h26.471v-1.15Zm0-31.938h26.47v-1.15h-26.47v1.15ZM.31 7.45a7.193 7.193 0 0 0 7.193 7.193V13.49a6.042 6.042 0 0 1-6.042-6.042H.31Zm7.193 7.193a7.193 7.193 0 0 0 7.193-7.193h-1.15a6.042 6.042 0 0 1-6.043 6.042v1.15Zm7.193-7.193A7.193 7.193 0 0 0 7.503.255v1.151a6.042 6.042 0 0 1 6.043 6.043h1.15ZM7.503.255A7.193 7.193 0 0 0 .31 7.45h1.151a6.042 6.042 0 0 1 6.042-6.043V.256Zm46.9 40.282a7.193 7.193 0 0 0-7.194-7.193v1.15a6.042 6.042 0 0 1 6.043 6.043h1.15Zm-7.194-7.193a7.193 7.193 0 0 0-7.193 7.193h1.151a6.042 6.042 0 0 1 6.042-6.042v-1.151Zm-7.193 7.193a7.193 7.193 0 0 0 7.193 7.193v-1.15a6.042 6.042 0 0 1-6.042-6.043h-1.15Zm7.193 7.193a7.193 7.193 0 0 0 7.194-7.193h-1.151a6.042 6.042 0 0 1-6.043 6.042v1.151Z"/></svg>