<svg xmlns="http://www.w3.org/2000/svg" width="65" height="66" fill="none"><g fill="#F5BA00" clip-path="url(#a)"><path d="M39.355 49.429c-.867.027-1.52-.95-1.162-1.74.413-1.027 1.912-1.027 2.324 0 .358.79-.294 1.767-1.162 1.74ZM21.387 57.29c-.322 0-.645-.123-.89-.369l-6.514-6.513a1.26 1.26 0 0 1 1.78-1.78l6.514 6.513a1.259 1.259 0 0 1-.89 2.149Zm1.645-5.6c-.322 0-.644-.123-.89-.369l-2.56-2.56a1.259 1.259 0 1 1 1.781-1.78l2.56 2.56a1.259 1.259 0 0 1-.89 2.15Z"/><path d="M64.704 12.344c0-.334-.133-.654-.37-.89L59.45 6.569a1.259 1.259 0 0 0-1.78 0l-1.797 1.797-.52-.52a1.26 1.26 0 0 0-1.78 1.78l.52.52-.96.96-.52-.52a1.259 1.259 0 0 0-1.78 1.78l.52.52-10.155 10.156c-4.93-3.052-9.882-2.99-13.1.228-.914.913-1.598 1.809-2.092 2.74-1.81 3.404-5.853 6.466-9.403 7.121-2.643.488-5.035 1.687-6.917 3.468-2.425 2.295-3.742 5.288-3.808 8.656-.089 4.52 2.106 9.41 6.02 13.416 3.952 4.043 8.823 6.377 13.365 6.403h.079c3.347 0 6.357-1.24 8.708-3.592 1.923-1.924 3.21-4.406 3.723-7.179.07-.373.167-.759.29-1.147a1.259 1.259 0 1 0-2.398-.764c-.156.488-.28.977-.367 1.454-.42 2.269-1.467 4.294-3.028 5.856-1.87 1.868-4.264 2.855-6.93 2.855h-.062c-3.874-.023-8.094-2.08-11.578-5.646-3.447-3.527-5.38-7.757-5.305-11.606.053-2.679 1.097-5.057 3.021-6.877 1.529-1.446 3.48-2.421 5.644-2.821 4.301-.794 8.998-4.333 11.169-8.416.375-.706.914-1.406 1.649-2.14 3.033-3.033 7.171-1.46 9.477-.167L29.046 35.193a7 7 0 0 0-5.3 2.043 6.97 6.97 0 0 0-2.056 4.962 6.97 6.97 0 0 0 2.055 4.96 6.97 6.97 0 0 0 4.961 2.056c1.874 0 3.636-.73 4.962-2.055a7 7 0 0 0 2.043-5.3L46.009 31.56c1.28 2.323 2.806 6.51-.381 9.698a8.05 8.05 0 0 1-1.831 1.371c-.34.186-.685.394-1.024.618a1.259 1.259 0 1 0 1.388 2.1c.28-.185.565-.356.844-.509a10.56 10.56 0 0 0 2.403-1.8c1.89-1.89 2.792-4.323 2.609-7.037-.138-2.04-.881-4.195-2.162-6.286l10.163-10.163.738.738a1.255 1.255 0 0 0 1.78 0 1.259 1.259 0 0 0 0-1.78l-.738-.739.96-.959.738.739a1.255 1.255 0 0 0 1.78 0 1.259 1.259 0 0 0 0-1.78l-.739-.74 1.798-1.797a1.26 1.26 0 0 0 .369-.89ZM31.887 45.378a4.47 4.47 0 0 1-3.18 1.318 4.468 4.468 0 0 1-3.182-1.318 4.504 4.504 0 0 1 0-6.362 4.484 4.484 0 0 1 3.181-1.315c1.152 0 2.304.438 3.181 1.315a4.505 4.505 0 0 1 0 6.362Zm3.084-6.34a6.989 6.989 0 0 0-1.303-1.802 6.99 6.99 0 0 0-1.802-1.303l18.527-18.527 3.105 3.105-18.527 18.527ZM55.278 18.73l-3.105-3.104.96-.96 3.104 3.105-.959.96Zm2.74-2.74-3.105-3.104.959-.959 3.105 3.105-.96.959Zm-.366-5.844.907-.907 3.105 3.105-.907.908-3.105-3.106Zm-39.009.491a1.259 1.259 0 0 0-1.663-1.192l-9.864 3.339a1.259 1.259 0 0 0-.855 1.192v9.516a4.239 4.239 0 0 0-1.745-.374 4.267 4.267 0 0 0-4.263 4.263 4.267 4.267 0 0 0 4.263 4.262 4.267 4.267 0 0 0 4.263-4.262V14.879l7.346-2.487v7.76a4.267 4.267 0 0 0-6.008 3.889 4.267 4.267 0 0 0 4.263 4.263 4.267 4.267 0 0 0 4.263-4.263V10.637ZM4.516 29.126a1.747 1.747 0 0 1-1.745-1.745c0-.962.783-1.745 1.745-1.745.962 0 1.745.783 1.745 1.745 0 .962-.783 1.745-1.745 1.745Zm9.864-3.34a1.747 1.747 0 0 1-1.745-1.745c0-.962.783-1.745 1.745-1.745.963 0 1.745.783 1.745 1.745 0 .962-.783 1.745-1.745 1.745Zm44.55 19.127-4.25-1.439a1.258 1.258 0 0 0-1.663 1.192v9.516a4.237 4.237 0 0 0-1.745-.374 4.267 4.267 0 0 0-4.263 4.263 4.267 4.267 0 0 0 4.263 4.262 4.267 4.267 0 0 0 4.262-4.262V46.422l2.59.876a1.259 1.259 0 1 0 .806-2.385Zm-7.658 14.903a1.747 1.747 0 0 1-1.745-1.745c0-.962.783-1.745 1.745-1.745.962 0 1.745.783 1.745 1.745 0 .962-.783 1.745-1.745 1.745Zm-16.61-45.648c-.248 0-.495-.073-.709-.219-.888-.605-5.372-3.71-6.413-5.328-.454-.705-1.045-1.824-.944-3.395.167-2.608 2.303-4.63 4.858-4.602 1.436.015 2.578.779 3.334 1.493.775-.688 1.923-1.421 3.293-1.421h.041C40.68.723 42.768 2.79 42.88 5.4c.067 1.57-.548 2.677-1.016 3.373-1.083 1.609-5.617 4.606-6.515 5.19a1.256 1.256 0 0 1-.687.204ZM31.404 3.141c-1.189 0-2.216 1.003-2.296 2.247-.042.657.117 1.2.549 1.87.503.782 3.037 2.734 5.021 4.131 2.007-1.35 4.574-3.243 5.097-4.02.447-.664.618-1.203.59-1.86-.054-1.253-1.072-2.283-2.27-2.296-1.003-.008-2.087 1.2-2.321 1.524a1.259 1.259 0 0 1-2.078-.05c-.28-.423-1.24-1.534-2.27-1.546h-.022Z"/></g><defs><clipPath id="a"><path fill="#fff" d="M.253.624h64.451v64.45H.254z"/></clipPath></defs></svg>