<svg xmlns="http://www.w3.org/2000/svg" width="61" height="61" fill="none"><g fill="#F5BA00" clip-path="url(#a)"><path d="M48.5 10.308a2.78 2.78 0 0 0-2.773 2.78v34.116c.14 3.688 5.418 3.675 5.557 0V13.087a2.785 2.785 0 0 0-2.784-2.779Zm-18.144 0a2.785 2.785 0 0 0-2.784 2.78v34.116c.14 3.683 5.429 3.68 5.568 0V13.087a2.785 2.785 0 0 0-2.784-2.779Zm9.072 10.162a2.78 2.78 0 0 0-2.773 2.78v13.792c.14 3.688 5.418 3.675 5.557 0V23.25a2.785 2.785 0 0 0-2.784-2.78Zm18.144 5.082a2.78 2.78 0 0 0-2.773 2.78v3.628c.14 3.689 5.418 3.675 5.557 0v-3.628a2.785 2.785 0 0 0-2.784-2.78Zm-54.432 0a2.785 2.785 0 0 0-2.785 2.78v3.628c.14 3.678 5.418 3.686 5.557 0v-3.629a2.78 2.78 0 0 0-2.773-2.779Zm9.07-10.162a2.785 2.785 0 0 0-2.783 2.779v23.954c.14 3.678 5.418 3.685 5.557 0V18.169a2.78 2.78 0 0 0-2.773-2.78ZM21.284.145a2.785 2.785 0 0 0-2.784 2.78v54.442c.14 3.677 5.418 3.685 5.556 0V2.925a2.78 2.78 0 0 0-2.772-2.78Z"/></g><defs><clipPath id="a"><path fill="#fff" d="M.356.136h60v60.001h-60z"/></clipPath></defs></svg>