<svg xmlns="http://www.w3.org/2000/svg" width="1728" height="1965" fill="none"><g clip-path="url(#a)"><g filter="url(#b)"><ellipse cx="576.146" cy="922.537" fill="#372007" rx="576.146" ry="922.537" transform="matrix(.9272 -.51887 .5981 .72528 551.798 -37.745)"/></g><mask id="d" width="3698" height="2403" x="-234" y="-1042" maskUnits="userSpaceOnUse" style="mask-type:alpha"><path fill="url(#c)" d="m3172.14 1360.45 291.03-1839.846L1399.7-1041.51l-612.593 1.26L-233.32-21.661l76.338 826.838L1630.44 1155.73l1541.7 204.72Z"/></mask><g mask="url(#d)"><mask id="f" width="3861" height="2535" x="-308" y="-1161" maskUnits="userSpaceOnUse" style="mask-type:alpha"><path fill="url(#e)" d="M-307.166 738.641C-65.46-92.735 354.783-1118.11 363.495-1160.17L3552.01-523.087 3191.93 1373.98-307.166 738.641Z"/></mask><g mask="url(#f)"><path fill="#FFC909" d="M1425.83-668.06c349.61 68.566 557.47 424.059 480.3 691.083-77.17 267.024-319.97 589.689-695.07 516.124-185.88-36.455-463.158 97.78-645.57-78.504-185.69-179.451-29.32-533.613 9.609-668.314C652.27-474.695 1076.22-736.626 1425.83-668.06Z"/><g filter="url(#g)"><path fill="#FFC909" d="M1415.03-646.011c374.95 73.535 576.46 357.399 516.55 564.708-59.91 207.308-280 451.619-654.95 378.084-185.81-36.44-453.017 63.286-643.934-83.243-194.346-149.162-61.534-421.884-31.311-526.461 59.913-207.309 438.695-406.624 813.645-333.088Z"/></g><g filter="url(#h)"><path fill="#FFC909" d="M1443.21-578.073c420.24 82.419 638.48 426.932 564.5 682.914-73.98 255.982-329.62 560.816-749.86 478.397-208.26-40.842-519.381 111.189-729.961-64.809-214.363-179.16-49.935-538.707-12.616-667.838 73.98-255.982 507.687-511.083 927.937-428.664Z"/></g><g filter="url(#i)"><path fill="#FFC909" d="M1467.71-484.918c498.79 171.169 822.49 622.478 726.78 953.665-95.72 331.187-462.53 637.573-966.53 538.723-249.757-48.98-675.141 249.01-924.208 25.89-253.542-227.127-48.802-826.141-.519-993.208 95.715-331.187 586.656-723.36 1164.477-525.07Z"/></g><g filter="url(#j)"><path fill="#FFC909" d="M1579.35-374.326c542.68 106.43 925.3 632.359 831.72 956.163-93.58 323.803-478.3 618.243-1020.97 511.813-268.92-52.74-631.159 6.8-904.06-217.113C208.237 648.606 243.678-53.904 290.885-217.247c93.581-323.804 745.795-263.509 1288.465-157.079Z"/></g><g filter="url(#k)"><path fill="#FFC909" d="M1791.97-196.052c560.8 109.986 917.47 641.103 821.75 972.291C2518.01 1107.43 2121.51 1407.99 1560.7 1298c-277.9-54.5-563.361-583.931-845.873-813.609-287.587-233.805-80.618-670.514-32.335-837.582 95.714-331.187 548.678 47.153 1109.478 157.139Z"/></g><g filter="url(#l)"><path fill="#FFC909" d="M1385.39-331.443c490.7 96.238 787.01 615.52 691.3 946.707-95.72 331.187-455.59 638.936-946.29 542.696-243.168-47.69-563.879-17.5-805.119-239.083-245.574-225.565-48.158-664.148.125-831.215C421.12-243.526 894.683-427.68 1385.39-331.443Z"/></g></g></g><g opacity=".6"><g filter="url(#m)"><ellipse cx="304.481" cy="217.098" fill="#E2B208" rx="420" ry="107.5" transform="rotate(-150 304.481 217.098)"/></g><g filter="url(#n)"><ellipse cx="201.857" cy="157.848" fill="#FFC808" rx="301.5" ry="58.5" transform="rotate(-150 201.857 157.848)"/></g><g filter="url(#o)"><ellipse cx="381.864" cy="261.775" fill="#FEC" rx="115.646" ry="44.5" transform="rotate(-150 381.864 261.775)"/></g></g></g><defs><filter id="b" width="2730.69" height="2660.75" x="272.422" y="-997.969" color-interpolation-filters="sRGB" filterUnits="userSpaceOnUse"><feFlood flood-opacity="0" result="BackgroundImageFix"/><feBlend in="SourceGraphic" in2="BackgroundImageFix" result="shape"/><feGaussianBlur result="effect1_foregroundBlur_1_6" stdDeviation="298.674"/></filter><filter id="g" width="1460.8" height="1019.54" x="505.11" y="-685.491" color-interpolation-filters="sRGB" filterUnits="userSpaceOnUse"><feFlood flood-opacity="0" result="BackgroundImageFix"/><feBlend in="SourceGraphic" in2="BackgroundImageFix" result="shape"/><feGaussianBlur result="effect1_foregroundBlur_1_6" stdDeviation="11.947"/></filter><filter id="h" width="1769.36" height="1366.67" x="336.218" y="-677.473" color-interpolation-filters="sRGB" filterUnits="userSpaceOnUse"><feFlood flood-opacity="0" result="BackgroundImageFix"/><feBlend in="SourceGraphic" in2="BackgroundImageFix" result="shape"/><feGaussianBlur result="effect1_foregroundBlur_1_6" stdDeviation="41.814"/></filter><filter id="i" width="2270.8" height="1894.69" x="59.922" y="-657.945" color-interpolation-filters="sRGB" filterUnits="userSpaceOnUse"><feFlood flood-opacity="0" result="BackgroundImageFix"/><feBlend in="SourceGraphic" in2="BackgroundImageFix" result="shape"/><feGaussianBlur result="effect1_foregroundBlur_1_6" stdDeviation="59.735"/></filter><filter id="j" width="2811.78" height="2220.17" x="-64.027" y="-781.798" color-interpolation-filters="sRGB" filterUnits="userSpaceOnUse"><feFlood flood-opacity="0" result="BackgroundImageFix"/><feBlend in="SourceGraphic" in2="BackgroundImageFix" result="shape"/><feGaussianBlur result="effect1_foregroundBlur_1_6" stdDeviation="161.284"/></filter><filter id="k" width="3664.85" height="3408.17" x="-235.185" y="-1286.61" color-interpolation-filters="sRGB" filterUnits="userSpaceOnUse"><feFlood flood-opacity="0" result="BackgroundImageFix"/><feBlend in="SourceGraphic" in2="BackgroundImageFix" result="shape"/><feGaussianBlur result="effect1_foregroundBlur_1_6" stdDeviation="400.223"/></filter><filter id="l" width="2630.67" height="2273.5" x="-165.723" y="-727.291" color-interpolation-filters="sRGB" filterUnits="userSpaceOnUse"><feFlood flood-opacity="0" result="BackgroundImageFix"/><feBlend in="SourceGraphic" in2="BackgroundImageFix" result="shape"/><feGaussianBlur result="effect1_foregroundBlur_1_6" stdDeviation="185.178"/></filter><filter id="m" width="1035.46" height="759.537" x="-213.249" y="-162.671" color-interpolation-filters="sRGB" filterUnits="userSpaceOnUse"><feFlood flood-opacity="0" result="BackgroundImageFix"/><feBlend in="SourceGraphic" in2="BackgroundImageFix" result="shape"/><feGaussianBlur result="effect1_foregroundBlur_1_6" stdDeviation="75"/></filter><filter id="n" width="765.527" height="558.157" x="-180.907" y="-121.231" color-interpolation-filters="sRGB" filterUnits="userSpaceOnUse"><feFlood flood-opacity="0" result="BackgroundImageFix"/><feBlend in="SourceGraphic" in2="BackgroundImageFix" result="shape"/><feGaussianBlur result="effect1_foregroundBlur_1_6" stdDeviation="60"/></filter><filter id="o" width="381.232" height="314.992" x="191.247" y="104.279" color-interpolation-filters="sRGB" filterUnits="userSpaceOnUse"><feFlood flood-opacity="0" result="BackgroundImageFix"/><feBlend in="SourceGraphic" in2="BackgroundImageFix" result="shape"/><feGaussianBlur result="effect1_foregroundBlur_1_6" stdDeviation="44"/></filter><linearGradient id="c" x1="1883.24" x2="727.617" y1="-62.915" y2="-277.455" gradientUnits="userSpaceOnUse"><stop stop-color="#C4C4C4"/><stop offset=".943" stop-color="#C4C4C4" stop-opacity="0"/></linearGradient><linearGradient id="e" x1="1432.42" x2="1219.76" y1="-544.728" y2="578.053" gradientUnits="userSpaceOnUse"><stop stop-color="#C4C4C4"/><stop offset="1" stop-color="#C4C4C4" stop-opacity="0"/></linearGradient><clipPath id="a"><path fill="#fff" d="M0 0h1728v1965H0z"/></clipPath></defs></svg>