<svg xmlns="http://www.w3.org/2000/svg" width="609" height="562" fill="none"><path stroke="url(#a)" stroke-opacity=".12" stroke-width="1.151" d="M.171 64.054H609"/><path stroke="url(#b)" stroke-opacity=".12" stroke-width="1.151" d="M178.561 492.191h283.123"/><path stroke="url(#c)" stroke-opacity=".12" stroke-width="1.151" d="M312.066 419.684v141.561"/><path stroke="url(#d)" stroke-opacity=".12" stroke-width="1.151" d="M104.904.755v276.217"/><path stroke="url(#e)" stroke-opacity=".12" stroke-width="1.151" d="M534.191 135.411V64.63"/><path fill="url(#f)" stroke="#2D2C36" stroke-width=".575" d="m312.27 483.932-.203-.204-.204.204-8.056 8.056-.203.203.203.204 8.056 8.056.204.204.203-.204 8.057-8.056.203-.204-.203-.203-8.057-8.056Z"/><path fill="url(#g)" stroke="#2D2C36" stroke-width=".575" d="m533.988 72.314.203.204.204-.204 8.056-8.056.203-.203-.203-.204-8.056-8.056-.204-.204-.203.204-8.057 8.056-.203.204.203.203 8.057 8.056Z"/><path fill="url(#h)" stroke="#2D2C36" stroke-width=".575" d="m113.163 64.258.204-.204-.204-.203-8.056-8.056-.203-.204-.204.204-8.056 8.056-.204.203.204.204 8.056 8.056.204.204.203-.204 8.056-8.056Z"/><defs><linearGradient id="a" x1=".171" x2="609" y1="64.554" y2="64.554" gradientUnits="userSpaceOnUse"><stop stop-color="#fff" stop-opacity=".2"/><stop offset=".175" stop-color="#fff"/><stop offset=".866" stop-color="#fff"/><stop offset="1" stop-color="#fff" stop-opacity=".2"/></linearGradient><linearGradient id="b" x1="178.561" x2="461.684" y1="492.691" y2="492.691" gradientUnits="userSpaceOnUse"><stop stop-color="#fff" stop-opacity=".2"/><stop offset=".175" stop-color="#fff"/><stop offset="1" stop-color="#fff"/></linearGradient><linearGradient id="c" x1="312.066" x2="313.066" y1="490.465" y2="490.465" gradientUnits="userSpaceOnUse"><stop stop-color="#fff" stop-opacity=".2"/><stop offset=".175" stop-color="#fff"/><stop offset="1" stop-color="#fff"/></linearGradient><linearGradient id="d" x1="104.404" x2="104.404" y1=".755" y2="276.972" gradientUnits="userSpaceOnUse"><stop stop-color="#fff" stop-opacity=".2"/><stop offset=".175" stop-color="#fff"/><stop offset="1" stop-color="#fff"/></linearGradient><linearGradient id="e" x1="534.191" x2="535.191" y1="100.02" y2="100.02" gradientUnits="userSpaceOnUse"><stop stop-color="#fff" stop-opacity=".2"/><stop offset=".175" stop-color="#fff"/><stop offset="1" stop-color="#fff"/></linearGradient><radialGradient id="f" cx="0" cy="0" r="1" gradientTransform="translate(312.067 492.191) scale(8.05634)" gradientUnits="userSpaceOnUse"><stop stop-color="#F5BA00"/><stop offset="1" stop-color="#8F6D00"/></radialGradient><radialGradient id="g" cx="0" cy="0" r="1" gradientTransform="rotate(180 267.096 32.027) scale(8.05634)" gradientUnits="userSpaceOnUse"><stop stop-color="#F5BA00"/><stop offset="1" stop-color="#8F6D00"/></radialGradient><radialGradient id="h" cx="0" cy="0" r="1" gradientTransform="rotate(90 20.425 84.48) scale(8.05634)" gradientUnits="userSpaceOnUse"><stop stop-color="#F5BA00"/><stop offset="1" stop-color="#8F6D00"/></radialGradient></defs></svg>