<svg xmlns="http://www.w3.org/2000/svg" width="1368" height="480" fill="none"><g filter="url(#a)"><g clip-path="url(#b)"><rect width="1368" height="480" fill="#0B0B0E" rx="24"/><g opacity=".4"><mask id="d" width="1126" height="330" x="1" y="-145" maskUnits="userSpaceOnUse" style="mask-type:alpha"><ellipse cx="564" cy="20" fill="url(#c)" rx="563" ry="165"/></mask><g stroke="#302C37" stroke-width="2" mask="url(#d)"><path d="M1441 44H-287m1728 80H-287M2-197v572m80-572v572m80-572v572m80-572v572m80-572v572m80-572v572m80-572v572m80-572v572m80-572v572m80-572v572m80-572v572m80-572v572m80-572v572m80-572v572m80-572v572" opacity=".5"/></g></g><g filter="url(#e)"><circle cx="1" cy="1" r="1" fill="#fff" transform="matrix(-1 0 0 1 113.5 134)"/></g><circle cx="1" cy="1" r="1" fill="#fff" transform="matrix(-1 0 0 1 113.5 134)"/><g filter="url(#f)"><circle cx=".5" cy=".5" r=".5" fill="#fff" transform="matrix(-1 0 0 1 139.5 221)"/></g><circle cx=".5" cy=".5" r=".5" fill="#fff" transform="matrix(-1 0 0 1 139.5 221)"/><g filter="url(#g)"><circle cx=".5" cy=".5" r=".5" fill="#fff" transform="matrix(-1 0 0 1 409.5 141)"/></g><circle cx=".5" cy=".5" r=".5" fill="#fff" transform="matrix(-1 0 0 1 409.5 141)"/><g filter="url(#h)"><circle cx=".5" cy=".5" r=".5" fill="#fff" transform="matrix(-1 0 0 1 561.5 177)"/></g><circle cx=".5" cy=".5" r=".5" fill="#fff" transform="matrix(-1 0 0 1 561.5 177)"/><g filter="url(#i)"><circle cx="199.5" cy="326" r="1" fill="#fff"/></g><circle cx="199.5" cy="326" r="1" fill="#fff"/><g filter="url(#j)"><circle cx="99" cy="403.5" r=".5" fill="#fff"/></g><circle cx="99" cy="403.5" r=".5" fill="#fff"/><g filter="url(#k)"><circle cx="579" cy="353.5" r=".5" fill="#fff"/></g><circle cx="579" cy="353.5" r=".5" fill="#fff"/><g filter="url(#l)"><circle cx="1245.5" cy="165" r="1" fill="#fff"/></g><circle cx="1245.5" cy="165" r="1" fill="#fff"/><g filter="url(#m)"><circle cx="1179" cy="221.5" r=".5" fill="#fff"/></g><circle cx="1179" cy="221.5" r=".5" fill="#fff"/><g filter="url(#n)"><circle cx="959" cy="141.5" r=".5" fill="#fff"/></g><circle cx="959" cy="141.5" r=".5" fill="#fff"/><g filter="url(#o)"><circle cx="797" cy="157.5" r=".5" fill="#fff"/></g><circle cx="797" cy="157.5" r=".5" fill="#fff"/><g filter="url(#p)"><circle cx="1" cy="1" r="1" fill="#fff" transform="matrix(-1 0 0 1 1199.5 345)"/></g><circle cx="1" cy="1" r="1" fill="#fff" transform="matrix(-1 0 0 1 1199.5 345)"/><g filter="url(#q)"><circle cx=".5" cy=".5" r=".5" fill="#fff" transform="matrix(-1 0 0 1 1269.5 473)"/></g><circle cx=".5" cy=".5" r=".5" fill="#fff" transform="matrix(-1 0 0 1 1269.5 473)"/><g filter="url(#r)"><circle cx=".5" cy=".5" r=".5" fill="#fff" transform="matrix(-1 0 0 1 779.5 353)"/></g><circle cx=".5" cy=".5" r=".5" fill="#fff" transform="matrix(-1 0 0 1 779.5 353)"/><g filter="url(#s)" opacity=".7"><ellipse cx="683.5" cy="-197" fill="#FFCF06" rx="563.5" ry="171"/></g><g filter="url(#t)" opacity=".7"><ellipse cx="-44.521" cy="193.5" fill="#FFCF06" fill-opacity=".6" rx="304.748" ry="92.479" transform="rotate(90 -44.521 193.5)"/></g><g filter="url(#u)" opacity=".7"><ellipse cx="1426.73" cy="204.5" fill="#FFCF06" fill-opacity=".6" rx="304.748" ry="92.479" transform="rotate(90 1426.73 204.5)"/></g><g filter="url(#v)" opacity=".7"><ellipse cx="688.218" cy="707.5" fill="#FFCF06" rx="677.215" ry="171"/></g></g></g><defs><filter id="a" width="1448" height="560" x="-40" y="-40" color-interpolation-filters="sRGB" filterUnits="userSpaceOnUse"><feFlood flood-opacity="0" result="BackgroundImageFix"/><feGaussianBlur in="BackgroundImageFix" stdDeviation="20"/><feComposite in2="SourceAlpha" operator="in" result="effect1_backgroundBlur_1_573"/><feBlend in="SourceGraphic" in2="effect1_backgroundBlur_1_573" result="shape"/></filter><filter id="e" width="12" height="12" x="106.5" y="129" color-interpolation-filters="sRGB" filterUnits="userSpaceOnUse"><feFlood flood-opacity="0" result="BackgroundImageFix"/><feBlend in="SourceGraphic" in2="BackgroundImageFix" result="shape"/><feGaussianBlur result="effect1_foregroundBlur_1_573" stdDeviation="2.5"/></filter><filter id="f" width="7" height="7" x="135.5" y="218" color-interpolation-filters="sRGB" filterUnits="userSpaceOnUse"><feFlood flood-opacity="0" result="BackgroundImageFix"/><feBlend in="SourceGraphic" in2="BackgroundImageFix" result="shape"/><feGaussianBlur result="effect1_foregroundBlur_1_573" stdDeviation="1.5"/></filter><filter id="g" width="7" height="7" x="405.5" y="138" color-interpolation-filters="sRGB" filterUnits="userSpaceOnUse"><feFlood flood-opacity="0" result="BackgroundImageFix"/><feBlend in="SourceGraphic" in2="BackgroundImageFix" result="shape"/><feGaussianBlur result="effect1_foregroundBlur_1_573" stdDeviation="1.5"/></filter><filter id="h" width="7" height="7" x="557.5" y="174" color-interpolation-filters="sRGB" filterUnits="userSpaceOnUse"><feFlood flood-opacity="0" result="BackgroundImageFix"/><feBlend in="SourceGraphic" in2="BackgroundImageFix" result="shape"/><feGaussianBlur result="effect1_foregroundBlur_1_573" stdDeviation="1.5"/></filter><filter id="i" width="12" height="12" x="193.5" y="320" color-interpolation-filters="sRGB" filterUnits="userSpaceOnUse"><feFlood flood-opacity="0" result="BackgroundImageFix"/><feBlend in="SourceGraphic" in2="BackgroundImageFix" result="shape"/><feGaussianBlur result="effect1_foregroundBlur_1_573" stdDeviation="2.5"/></filter><filter id="j" width="7" height="7" x="95.5" y="400" color-interpolation-filters="sRGB" filterUnits="userSpaceOnUse"><feFlood flood-opacity="0" result="BackgroundImageFix"/><feBlend in="SourceGraphic" in2="BackgroundImageFix" result="shape"/><feGaussianBlur result="effect1_foregroundBlur_1_573" stdDeviation="1.5"/></filter><filter id="k" width="7" height="7" x="575.5" y="350" color-interpolation-filters="sRGB" filterUnits="userSpaceOnUse"><feFlood flood-opacity="0" result="BackgroundImageFix"/><feBlend in="SourceGraphic" in2="BackgroundImageFix" result="shape"/><feGaussianBlur result="effect1_foregroundBlur_1_573" stdDeviation="1.5"/></filter><filter id="l" width="12" height="12" x="1239.5" y="159" color-interpolation-filters="sRGB" filterUnits="userSpaceOnUse"><feFlood flood-opacity="0" result="BackgroundImageFix"/><feBlend in="SourceGraphic" in2="BackgroundImageFix" result="shape"/><feGaussianBlur result="effect1_foregroundBlur_1_573" stdDeviation="2.5"/></filter><filter id="m" width="7" height="7" x="1175.5" y="218" color-interpolation-filters="sRGB" filterUnits="userSpaceOnUse"><feFlood flood-opacity="0" result="BackgroundImageFix"/><feBlend in="SourceGraphic" in2="BackgroundImageFix" result="shape"/><feGaussianBlur result="effect1_foregroundBlur_1_573" stdDeviation="1.5"/></filter><filter id="n" width="7" height="7" x="955.5" y="138" color-interpolation-filters="sRGB" filterUnits="userSpaceOnUse"><feFlood flood-opacity="0" result="BackgroundImageFix"/><feBlend in="SourceGraphic" in2="BackgroundImageFix" result="shape"/><feGaussianBlur result="effect1_foregroundBlur_1_573" stdDeviation="1.5"/></filter><filter id="o" width="7" height="7" x="793.5" y="154" color-interpolation-filters="sRGB" filterUnits="userSpaceOnUse"><feFlood flood-opacity="0" result="BackgroundImageFix"/><feBlend in="SourceGraphic" in2="BackgroundImageFix" result="shape"/><feGaussianBlur result="effect1_foregroundBlur_1_573" stdDeviation="1.5"/></filter><filter id="p" width="12" height="12" x="1192.5" y="340" color-interpolation-filters="sRGB" filterUnits="userSpaceOnUse"><feFlood flood-opacity="0" result="BackgroundImageFix"/><feBlend in="SourceGraphic" in2="BackgroundImageFix" result="shape"/><feGaussianBlur result="effect1_foregroundBlur_1_573" stdDeviation="2.5"/></filter><filter id="q" width="7" height="7" x="1265.5" y="470" color-interpolation-filters="sRGB" filterUnits="userSpaceOnUse"><feFlood flood-opacity="0" result="BackgroundImageFix"/><feBlend in="SourceGraphic" in2="BackgroundImageFix" result="shape"/><feGaussianBlur result="effect1_foregroundBlur_1_573" stdDeviation="1.5"/></filter><filter id="r" width="7" height="7" x="775.5" y="350" color-interpolation-filters="sRGB" filterUnits="userSpaceOnUse"><feFlood flood-opacity="0" result="BackgroundImageFix"/><feBlend in="SourceGraphic" in2="BackgroundImageFix" result="shape"/><feGaussianBlur result="effect1_foregroundBlur_1_573" stdDeviation="1.5"/></filter><filter id="s" width="1627" height="842" x="-130" y="-618" color-interpolation-filters="sRGB" filterUnits="userSpaceOnUse"><feFlood flood-opacity="0" result="BackgroundImageFix"/><feBlend in="SourceGraphic" in2="BackgroundImageFix" result="shape"/><feGaussianBlur result="effect1_foregroundBlur_1_573" stdDeviation="125"/></filter><filter id="t" width="1404.96" height="1829.5" x="-747" y="-721.248" color-interpolation-filters="sRGB" filterUnits="userSpaceOnUse"><feFlood flood-opacity="0" result="BackgroundImageFix"/><feBlend in="SourceGraphic" in2="BackgroundImageFix" result="shape"/><feGaussianBlur result="effect1_foregroundBlur_1_573" stdDeviation="305"/></filter><filter id="u" width="1404.96" height="1829.5" x="724.25" y="-710.248" color-interpolation-filters="sRGB" filterUnits="userSpaceOnUse"><feFlood flood-opacity="0" result="BackgroundImageFix"/><feBlend in="SourceGraphic" in2="BackgroundImageFix" result="shape"/><feGaussianBlur result="effect1_foregroundBlur_1_573" stdDeviation="305"/></filter><filter id="v" width="1854.43" height="842" x="-238.998" y="286.5" color-interpolation-filters="sRGB" filterUnits="userSpaceOnUse"><feFlood flood-opacity="0" result="BackgroundImageFix"/><feBlend in="SourceGraphic" in2="BackgroundImageFix" result="shape"/><feGaussianBlur result="effect1_foregroundBlur_1_573" stdDeviation="125"/></filter><radialGradient id="c" cx="0" cy="0" r="1" gradientTransform="matrix(0 165 -563 0 564 20)" gradientUnits="userSpaceOnUse"><stop offset=".323" stop-color="#fff"/><stop offset=".9" stop-color="#D9D9D9" stop-opacity=".2"/><stop offset="1" stop-color="#D9D9D9" stop-opacity="0"/></radialGradient><clipPath id="b"><rect width="1368" height="480" fill="#fff" rx="24"/></clipPath></defs></svg>