<svg xmlns="http://www.w3.org/2000/svg" width="1368" height="380" fill="none"><g clip-path="url(#a)"><g filter="url(#b)"><path fill="#FFCF06" d="M687 261.5c26.786 0 48.5-21.714 48.5-48.5s-21.714-48.5-48.5-48.5-48.5 21.714-48.5 48.5 21.714 48.5 48.5 48.5Z"/></g><path stroke="url(#c)" d="M735.5 204.5h177.686a8 8 0 0 0 5.657-2.343l20.314-20.314a8 8 0 0 1 5.657-2.343h64.376c2.12 0 4.15-.843 5.65-2.343l65.32-65.314a7.988 7.988 0 0 1 5.65-2.343h164.69l38 38h140L1553 25"/><g filter="url(#d)"><path stroke="url(#e)" stroke-width="5" d="M1047.5 144.5 1030 162"/></g><path fill="url(#f)" d="M1047.85 144.854c.2-.196.2-.512 0-.708a.492.492 0 0 0-.7 0l.7.708Zm-17.5 17.5 17.5-17.5-.7-.708-17.5 17.5.7.708Z"/><path stroke="url(#g)" d="M735.5 216.5h236.686a8 8 0 0 1 5.657 2.343l32.317 32.314a7.988 7.988 0 0 0 5.65 2.343h52.88c2.12 0 4.15.843 5.65 2.343l67.82 67.814a7.988 7.988 0 0 0 5.65 2.343h102.69l38-38h140l127 127"/><g filter="url(#h)"><path fill="url(#i)" d="M1029.5 256a2.5 2.5 0 0 0 0-5v5Zm-13.69 0h13.69v-5h-13.69v5Zm-18.578-14.232 11.158 11.157 3.53-3.536-11.15-11.157-3.538 3.536ZM1015.81 251a5.53 5.53 0 0 1-3.89-1.611l-3.53 3.536a10.5 10.5 0 0 0 7.42 3.075v-5Z"/></g><path fill="url(#j)" d="M1029.5 254c.28 0 .5-.224.5-.5s-.22-.5-.5-.5v1Zm-13.69 0h13.69v-1h-13.69v1Zm-17.164-13.646 11.154 11.156.71-.707-11.156-11.157-.708.708ZM1015.81 253c-1.99 0-3.89-.79-5.3-2.197l-.71.707a8.518 8.518 0 0 0 6.01 2.49v-1Z"/><g filter="url(#k)"><path stroke="url(#l)" stroke-width="5" d="M775.5 216.5h24"/></g><path stroke="url(#m)" stroke-linecap="round" d="M775.5 216.5h24"/><path stroke="url(#n)" d="M735.5 228.5h211.186a8 8 0 0 1 5.657 2.343L1010.5 289h24"/><g filter="url(#o)"><path stroke="url(#p)" stroke-width="5" d="M846.5 204.5h24"/></g><path stroke="url(#q)" stroke-linecap="round" d="M846.5 204.5h24"/><path stroke="url(#r)" d="M735.5 240.5h177.686a8 8 0 0 1 5.657 2.343L1012.5 336.5"/><g filter="url(#s)"><path stroke="url(#t)" stroke-width="5" d="m923.5 247.5-4.657-4.657a8 8 0 0 0-5.657-2.343H903"/></g><path fill="url(#u)" d="M923.146 247.854a.502.502 0 0 0 .708-.708l-.708.708Zm-4.656-4.657 4.656 4.657.708-.708-4.657-4.656-.707.707ZM903 241h10.186v-1H903v1Zm16.197 1.49a8.5 8.5 0 0 0-6.011-2.49v1c1.989 0 3.897.79 5.304 2.197l.707-.707Z"/><path stroke="url(#v)" d="M632.5 204.5H454.814a8 8 0 0 1-5.657-2.343l-20.314-20.314a8 8 0 0 0-5.657-2.343h-64.372a8 8 0 0 1-5.657-2.343l-65.314-65.314a8 8 0 0 0-5.657-2.343H117.5l-38 38h-140L-185 25"/><g filter="url(#w)"><path stroke="url(#x)" stroke-width="5" d="M320.5 144.5 338 162"/></g><path fill="url(#y)" d="M320.146 144.854a.502.502 0 0 1 .708-.708l-.708.708Zm17.5 17.5-17.5-17.5.708-.708 17.5 17.5-.708.708Z"/><path stroke="url(#z)" d="M632.5 216.5H395.814a8 8 0 0 0-5.657 2.343l-32.314 32.314a8 8 0 0 1-5.657 2.343h-52.872a8 8 0 0 0-5.657 2.343l-67.814 67.814a8 8 0 0 1-5.657 2.343H117.5l-38-38h-140l-127 127"/><g filter="url(#A)"><path fill="url(#B)" d="M338.5 256a2.5 2.5 0 1 1 0-5v5Zm13.686 0H338.5v-5h13.686v5Zm18.582-14.232-11.157 11.157-3.536-3.536 11.157-11.157 3.536 3.536ZM352.186 251a5.496 5.496 0 0 0 3.889-1.611l3.536 3.536a10.5 10.5 0 0 1-7.425 3.075v-5Z"/></g><path fill="url(#C)" d="M338.5 254a.5.5 0 0 1 0-1v1Zm13.686 0H338.5v-1h13.686v1Zm17.168-13.646-11.157 11.156-.707-.707 11.156-11.157.708.708ZM352.186 253c1.989 0 3.897-.79 5.304-2.197l.707.707a8.5 8.5 0 0 1-6.011 2.49v-1Z"/><g filter="url(#D)"><path stroke="url(#E)" stroke-width="5" d="M592.5 216.5h-24"/></g><path stroke="url(#F)" stroke-linecap="round" d="M592.5 216.5h-24"/><path stroke="url(#G)" d="M632.5 228.5H421.314a8 8 0 0 0-5.657 2.343L357.5 289h-24"/><g filter="url(#H)"><path stroke="url(#I)" stroke-width="5" d="M521.5 204.5h-24"/></g><path stroke="url(#J)" stroke-linecap="round" d="M521.5 204.5h-24"/><path stroke="url(#K)" d="M632.5 240.5H454.814a8 8 0 0 0-5.657 2.343L355.5 336.5"/><g filter="url(#L)"><path stroke="url(#M)" stroke-width="5" d="m444.5 247.5 4.657-4.657a8 8 0 0 1 5.657-2.343H465"/></g><path fill="url(#N)" d="M444.854 247.854a.502.502 0 0 1-.708-.708l.708.708Zm4.656-4.657-4.656 4.657-.708-.708 4.657-4.656.707.707ZM465 241h-10.186v-1H465v1Zm-16.197 1.49a8.5 8.5 0 0 1 6.011-2.49v1c-1.989 0-3.897.79-5.304 2.197l-.707-.707Z"/></g><defs><linearGradient id="c" x1="1553" x2="735.5" y1="114.75" y2="114.75" gradientUnits="userSpaceOnUse"><stop offset=".385" stop-color="#FFCF06" stop-opacity=".25"/><stop offset="1" stop-color="#FFCF06"/></linearGradient><linearGradient id="e" x1="1030" x2="1047.5" y1="162" y2="162" gradientUnits="userSpaceOnUse"><stop stop-color="#FFCF06" stop-opacity="0"/><stop offset="1" stop-color="#FFCF06"/></linearGradient><linearGradient id="f" x1="1030" x2="1047.5" y1="162" y2="162" gradientUnits="userSpaceOnUse"><stop stop-color="#FFCF06" stop-opacity="0"/><stop offset="1" stop-color="#FFCF06"/></linearGradient><linearGradient id="g" x1="1555.5" x2="735.5" y1="315.75" y2="315.75" gradientUnits="userSpaceOnUse"><stop offset=".385" stop-color="#FFCF06" stop-opacity=".25"/><stop offset="1" stop-color="#FFCF06"/></linearGradient><linearGradient id="i" x1="999" x2="1029.5" y1="246.75" y2="246.75" gradientUnits="userSpaceOnUse"><stop stop-color="#FFCF06" stop-opacity="0"/><stop offset="1" stop-color="#FFCF06"/></linearGradient><linearGradient id="j" x1="999" x2="1029.5" y1="246.75" y2="246.75" gradientUnits="userSpaceOnUse"><stop stop-color="#FFCF06" stop-opacity="0"/><stop offset="1" stop-color="#FFCF06"/></linearGradient><linearGradient id="l" x1="-nan" x2="-nan" y1="-nan" y2="-nan" gradientUnits="userSpaceOnUse"><stop stop-color="#FFCF06" stop-opacity="0"/><stop offset="1" stop-color="#FFCF06"/></linearGradient><linearGradient id="m" x1="-nan" x2="-nan" y1="-nan" y2="-nan" gradientUnits="userSpaceOnUse"><stop stop-color="#FFCF06" stop-opacity="0"/><stop offset="1" stop-color="#FFCF06"/></linearGradient><linearGradient id="n" x1="1065" x2="757" y1="261" y2="259" gradientUnits="userSpaceOnUse"><stop offset=".03" stop-color="#FFCF06" stop-opacity="0"/><stop offset=".757" stop-color="#FFCF06"/></linearGradient><linearGradient id="p" x1="-nan" x2="-nan" y1="-nan" y2="-nan" gradientUnits="userSpaceOnUse"><stop stop-color="#FFCF06" stop-opacity="0"/><stop offset="1" stop-color="#FFCF06"/></linearGradient><linearGradient id="q" x1="-nan" x2="-nan" y1="-nan" y2="-nan" gradientUnits="userSpaceOnUse"><stop stop-color="#FFCF06" stop-opacity="0"/><stop offset="1" stop-color="#FFCF06"/></linearGradient><linearGradient id="r" x1="1018" x2="755.432" y1="288.897" y2="290.821" gradientUnits="userSpaceOnUse"><stop stop-color="#FFCF06" stop-opacity="0"/><stop offset=".757" stop-color="#FFCF06"/></linearGradient><linearGradient id="t" x1="903" x2="923.5" y1="244" y2="244" gradientUnits="userSpaceOnUse"><stop stop-color="#FFCF06" stop-opacity="0"/><stop offset="1" stop-color="#FFCF06"/></linearGradient><linearGradient id="u" x1="903" x2="923.5" y1="244" y2="244" gradientUnits="userSpaceOnUse"><stop stop-color="#FFCF06" stop-opacity="0"/><stop offset="1" stop-color="#FFCF06"/></linearGradient><linearGradient id="v" x1="-185" x2="632.5" y1="114.75" y2="114.75" gradientUnits="userSpaceOnUse"><stop offset=".385" stop-color="#FFCF06" stop-opacity=".25"/><stop offset="1" stop-color="#FFCF06"/></linearGradient><linearGradient id="x" x1="338" x2="320.5" y1="162" y2="162" gradientUnits="userSpaceOnUse"><stop stop-color="#FFCF06" stop-opacity="0"/><stop offset="1" stop-color="#FFCF06"/></linearGradient><linearGradient id="y" x1="338" x2="320.5" y1="162" y2="162" gradientUnits="userSpaceOnUse"><stop stop-color="#FFCF06" stop-opacity="0"/><stop offset="1" stop-color="#FFCF06"/></linearGradient><linearGradient id="z" x1="-187.5" x2="632.5" y1="315.75" y2="315.75" gradientUnits="userSpaceOnUse"><stop offset=".385" stop-color="#FFCF06" stop-opacity=".25"/><stop offset="1" stop-color="#FFCF06"/></linearGradient><linearGradient id="B" x1="369" x2="338.5" y1="246.75" y2="246.75" gradientUnits="userSpaceOnUse"><stop stop-color="#FFCF06" stop-opacity="0"/><stop offset="1" stop-color="#FFCF06"/></linearGradient><linearGradient id="C" x1="369" x2="338.5" y1="246.75" y2="246.75" gradientUnits="userSpaceOnUse"><stop stop-color="#FFCF06" stop-opacity="0"/><stop offset="1" stop-color="#FFCF06"/></linearGradient><linearGradient id="E" x1="-nan" x2="-nan" y1="-nan" y2="-nan" gradientUnits="userSpaceOnUse"><stop stop-color="#FFCF06" stop-opacity="0"/><stop offset="1" stop-color="#FFCF06"/></linearGradient><linearGradient id="F" x1="-nan" x2="-nan" y1="-nan" y2="-nan" gradientUnits="userSpaceOnUse"><stop stop-color="#FFCF06" stop-opacity="0"/><stop offset="1" stop-color="#FFCF06"/></linearGradient><linearGradient id="G" x1="303" x2="611" y1="261" y2="259" gradientUnits="userSpaceOnUse"><stop offset=".03" stop-color="#FFCF06" stop-opacity="0"/><stop offset=".757" stop-color="#FFCF06"/></linearGradient><linearGradient id="I" x1="-nan" x2="-nan" y1="-nan" y2="-nan" gradientUnits="userSpaceOnUse"><stop stop-color="#FFCF06" stop-opacity="0"/><stop offset="1" stop-color="#FFCF06"/></linearGradient><linearGradient id="J" x1="-nan" x2="-nan" y1="-nan" y2="-nan" gradientUnits="userSpaceOnUse"><stop stop-color="#FFCF06" stop-opacity="0"/><stop offset="1" stop-color="#FFCF06"/></linearGradient><linearGradient id="K" x1="350" x2="612.568" y1="288.897" y2="290.821" gradientUnits="userSpaceOnUse"><stop stop-color="#FFCF06" stop-opacity="0"/><stop offset=".757" stop-color="#FFCF06"/></linearGradient><linearGradient id="M" x1="465" x2="444.5" y1="244" y2="244" gradientUnits="userSpaceOnUse"><stop stop-color="#FFCF06" stop-opacity="0"/><stop offset="1" stop-color="#FFCF06"/></linearGradient><linearGradient id="N" x1="465" x2="444.5" y1="244" y2="244" gradientUnits="userSpaceOnUse"><stop stop-color="#FFCF06" stop-opacity="0"/><stop offset="1" stop-color="#FFCF06"/></linearGradient><filter id="b" width="425" height="425" x="474.5" y=".5" color-interpolation-filters="sRGB" filterUnits="userSpaceOnUse"><feFlood flood-opacity="0" result="BackgroundImageFix"/><feBlend in="SourceGraphic" in2="BackgroundImageFix" result="shape"/><feGaussianBlur result="effect1_foregroundBlur_4001_4" stdDeviation="82"/></filter><filter id="d" width="41.035" height="41.036" x="1018.23" y="132.732" color-interpolation-filters="sRGB" filterUnits="userSpaceOnUse"><feFlood flood-opacity="0" result="BackgroundImageFix"/><feBlend in="SourceGraphic" in2="BackgroundImageFix" result="shape"/><feGaussianBlur result="effect1_foregroundBlur_4001_4" stdDeviation="5"/></filter><filter id="h" width="54.768" height="37.768" x="987.232" y="228.232" color-interpolation-filters="sRGB" filterUnits="userSpaceOnUse"><feFlood flood-opacity="0" result="BackgroundImageFix"/><feBlend in="SourceGraphic" in2="BackgroundImageFix" result="shape"/><feGaussianBlur result="effect1_foregroundBlur_4001_4" stdDeviation="5"/></filter><filter id="k" width="44" height="25" x="765.5" y="204" color-interpolation-filters="sRGB" filterUnits="userSpaceOnUse"><feFlood flood-opacity="0" result="BackgroundImageFix"/><feBlend in="SourceGraphic" in2="BackgroundImageFix" result="shape"/><feGaussianBlur result="effect1_foregroundBlur_4001_4" stdDeviation="5"/></filter><filter id="o" width="44" height="25" x="836.5" y="192" color-interpolation-filters="sRGB" filterUnits="userSpaceOnUse"><feFlood flood-opacity="0" result="BackgroundImageFix"/><feBlend in="SourceGraphic" in2="BackgroundImageFix" result="shape"/><feGaussianBlur result="effect1_foregroundBlur_4001_4" stdDeviation="5"/></filter><filter id="s" width="42.268" height="31.268" x="893" y="228" color-interpolation-filters="sRGB" filterUnits="userSpaceOnUse"><feFlood flood-opacity="0" result="BackgroundImageFix"/><feBlend in="SourceGraphic" in2="BackgroundImageFix" result="shape"/><feGaussianBlur result="effect1_foregroundBlur_4001_4" stdDeviation="5"/></filter><filter id="w" width="41.036" height="41.036" x="308.732" y="132.732" color-interpolation-filters="sRGB" filterUnits="userSpaceOnUse"><feFlood flood-opacity="0" result="BackgroundImageFix"/><feBlend in="SourceGraphic" in2="BackgroundImageFix" result="shape"/><feGaussianBlur result="effect1_foregroundBlur_4001_4" stdDeviation="5"/></filter><filter id="A" width="54.768" height="37.768" x="326" y="228.232" color-interpolation-filters="sRGB" filterUnits="userSpaceOnUse"><feFlood flood-opacity="0" result="BackgroundImageFix"/><feBlend in="SourceGraphic" in2="BackgroundImageFix" result="shape"/><feGaussianBlur result="effect1_foregroundBlur_4001_4" stdDeviation="5"/></filter><filter id="D" width="44" height="25" x="558.5" y="204" color-interpolation-filters="sRGB" filterUnits="userSpaceOnUse"><feFlood flood-opacity="0" result="BackgroundImageFix"/><feBlend in="SourceGraphic" in2="BackgroundImageFix" result="shape"/><feGaussianBlur result="effect1_foregroundBlur_4001_4" stdDeviation="5"/></filter><filter id="H" width="44" height="25" x="487.5" y="192" color-interpolation-filters="sRGB" filterUnits="userSpaceOnUse"><feFlood flood-opacity="0" result="BackgroundImageFix"/><feBlend in="SourceGraphic" in2="BackgroundImageFix" result="shape"/><feGaussianBlur result="effect1_foregroundBlur_4001_4" stdDeviation="5"/></filter><filter id="L" width="42.268" height="31.268" x="432.732" y="228" color-interpolation-filters="sRGB" filterUnits="userSpaceOnUse"><feFlood flood-opacity="0" result="BackgroundImageFix"/><feBlend in="SourceGraphic" in2="BackgroundImageFix" result="shape"/><feGaussianBlur result="effect1_foregroundBlur_4001_4" stdDeviation="5"/></filter><clipPath id="a"><path fill="#fff" d="M0 0h1368v380H0z"/></clipPath></defs></svg>