<svg xmlns="http://www.w3.org/2000/svg" width="65" height="66" fill="none"><path fill="#F5BA00" d="M37.995 35.22c1.857-15.937-2.388-24.516-2.59-24.772a.995.995 0 0 0-1.229-.477l-20.83 7.282a.996.996 0 0 0-.59.538 1.021 1.021 0 0 0-.03.792 51.202 51.202 0 0 1 2.925 16.768c-3.779-3.997-11.606-1.59-11.588 4.012 0 3.321 2.986 6.023 6.652 6.023a6.428 6.428 0 0 0 6.632-5.576c1.298-8.965-1.374-18.036-2.366-20.973l18.992-6.642c.863 2.123 2.976 8.5 2.326 18.951-3.758-3.936-11.162-1.465-11.142 4.073.29 7.948 12.538 7.957 12.838 0Zm10.41-15.103a5.09 5.09 0 0 0-4.57 5.525c.46 4.387 6.57 5.75 9.211 2.407 3.377-3.735-1.95-12.43-3.361-14.838a5.403 5.403 0 0 1 5.098 1.39 1.017 1.017 0 0 0 1.473-1.4 7.38 7.38 0 0 0-8.562-1.392 1.012 1.012 0 0 0-.376 1.483 39.117 39.117 0 0 1 3.768 7.18 5.314 5.314 0 0 0-2.681-.355Zm8.277 23.294a1.019 1.019 0 0 0-1.299.612c-.218.739-1.527 2.87-2.994 2.523.246-1.55.453-4.663-1.199-7.114a7.701 7.701 0 0 0-5.774-3.196 1.021 1.021 0 0 0-1.126 1.173c.59 3.69.925 7.416 1.003 11.152a5.88 5.88 0 0 0-3.998-1.723c-7.88.008-7.881 10.696-.172 10.908a5.881 5.881 0 0 0 5.745-4.51c1.002-3.924.095-11.533-.356-14.717 4.678 1.124 4.197 6.852 3.72 8.463-.304 1.822 2.992 1.82 3.986 1.301a6.622 6.622 0 0 0 3.079-3.578 1.013 1.013 0 0 0-.615-1.294ZM42.61 13.956l.537-.979.98-.536-.98-.536-.536-.98-.536.98-.98.536.98.536.536.979Z"/><path fill="#F5BA00" d="m39.044 42.264.536.98.535-.98.98-.535-.98-.536-.535-.979-.536.98-.98.535.98.535Zm19.898-20.135-.535-.98-.536.98-.98.535.98.536.536.98.535-.98.98-.536-.98-.535ZM13.677 10.925l.535-.98.98-.535-.98-.536-.535-.98-.537.98-.979.536.98.535.536.98Zm12.057 13.176.98-.535-.98-.536-.535-.98-.536.98-.98.536.98.535.536.98.535-.98ZM19.036 51.88l-.948 1.733-1.733.949 1.733.947.948 1.733.948-1.733 1.733-.947-1.733-.949-.948-1.733ZM6.47 21.149a.934.934 0 0 0 0-1.868.934.934 0 0 0 0 1.868ZM30.709 48.24a.934.934 0 0 0 0 1.868.934.934 0 0 0 0-1.867Zm22.061 6.321a.934.934 0 0 0 0 1.868.935.935 0 0 0 0-1.868Zm2.75-20.191a.934.934 0 0 0 0 1.868.934.934 0 0 0 0-1.868ZM44.7 32.896a.935.935 0 0 0 1.868 0 .934.934 0 0 0-1.868 0Z"/></svg>